<?xml version="1.0" encoding="UTF-8" standalone="no"?>
<!-- Created with Inkscape (http://www.inkscape.org/) -->

<svg
   xmlns:dc="http://purl.org/dc/elements/1.1/"
   xmlns:cc="http://creativecommons.org/ns#"
   xmlns:rdf="http://www.w3.org/1999/02/22-rdf-syntax-ns#"
   xmlns:svg="http://www.w3.org/2000/svg"
   xmlns="http://www.w3.org/2000/svg"
   xmlns:inkscape="http://www.inkscape.org/namespaces/inkscape"
   version="1.1"
   width="292.73712"
   height="296.49805"
   id="svg2">
  <defs
     id="defs4">
    <inkscape:path-effect
       effect="spiro"
       id="path-effect9027" />
    <inkscape:path-effect
       effect="spiro"
       id="path-effect7375" />
    <inkscape:path-effect
       effect="spiro"
       id="path-effect7371" />
    <inkscape:path-effect
       effect="spiro"
       id="path-effect7367" />
    <inkscape:path-effect
       effect="spiro"
       id="path-effect7363" />
    <inkscape:path-effect
       effect="spiro"
       id="path-effect7359" />
    <inkscape:path-effect
       effect="spiro"
       id="path-effect7355" />
    <inkscape:path-effect
       effect="spiro"
       id="path-effect6919" />
    <inkscape:path-effect
       effect="spiro"
       id="path-effect5386" />
    <marker
       refX="0"
       refY="0"
       orient="auto"
       id="Arrow2Lend"
       style="overflow:visible">
      <path
         d="M 8.7185878,4.0337352 -2.2072895,0.01601326 8.7185884,-4.0017078 c -1.7454984,2.3720609 -1.7354408,5.6174519 -6e-7,8.035443 z"
         transform="matrix(-1.1,0,0,-1.1,-1.1,0)"
         id="path3935"
         style="fill-rule:evenodd;stroke-width:0.625;stroke-linejoin:round" />
    </marker>
    <marker
       refX="0"
       refY="0"
       orient="auto"
       id="Arrow2Send"
       style="overflow:visible">
      <path
         d="M 8.7185878,4.0337352 -2.2072895,0.01601326 8.7185884,-4.0017078 c -1.7454984,2.3720609 -1.7354408,5.6174519 -6e-7,8.035443 z"
         transform="matrix(-0.3,0,0,-0.3,0.69,0)"
         id="path3947"
         style="fill-rule:evenodd;stroke-width:0.625;stroke-linejoin:round" />
    </marker>
    <marker
       refX="0"
       refY="0"
       orient="auto"
       id="Arrow2Mend"
       style="overflow:visible">
      <path
         d="M 8.7185878,4.0337352 -2.2072895,0.01601326 8.7185884,-4.0017078 c -1.7454984,2.3720609 -1.7354408,5.6174519 -6e-7,8.035443 z"
         transform="scale(-0.6,-0.6)"
         id="path3941"
         style="fill-rule:evenodd;stroke-width:0.625;stroke-linejoin:round" />
    </marker>
    <marker
       refX="0"
       refY="0"
       orient="auto"
       id="Arrow1Lend"
       style="overflow:visible">
      <path
         d="M 0,0 5,-5 -12.5,0 5,5 0,0 z"
         transform="matrix(-0.8,0,0,-0.8,-10,0)"
         id="path3917"
         style="fill-rule:evenodd;stroke:#000000;stroke-width:1pt" />
    </marker>
    <marker
       refX="0"
       refY="0"
       orient="auto"
       id="Arrow2Mend-7"
       style="overflow:visible">
      <path
         d="M 8.7185878,4.0337352 -2.2072895,0.01601326 8.7185884,-4.0017078 c -1.7454984,2.3720609 -1.7354408,5.6174519 -6e-7,8.035443 z"
         transform="scale(-0.6,-0.6)"
         id="path3941-2"
         style="fill-rule:evenodd;stroke-width:0.625;stroke-linejoin:round" />
    </marker>
    <marker
       refX="0"
       refY="0"
       orient="auto"
       id="Arrow2Mend-3"
       style="overflow:visible">
      <path
         d="M 8.7185878,4.0337352 -2.2072895,0.01601326 8.7185884,-4.0017078 c -1.7454984,2.3720609 -1.7354408,5.6174519 -6e-7,8.035443 z"
         transform="scale(-0.6,-0.6)"
         id="path3941-7"
         style="fill-rule:evenodd;stroke-width:0.625;stroke-linejoin:round" />
    </marker>
    <marker
       refX="0"
       refY="0"
       orient="auto"
       id="Arrow2Mend-1"
       style="overflow:visible">
      <path
         d="M 8.7185878,4.0337352 -2.2072895,0.01601326 8.7185884,-4.0017078 c -1.7454984,2.3720609 -1.7354408,5.6174519 -6e-7,8.035443 z"
         transform="scale(-0.6,-0.6)"
         id="path3941-0"
         style="fill-rule:evenodd;stroke-width:0.625;stroke-linejoin:round" />
    </marker>
    <marker
       refX="0"
       refY="0"
       orient="auto"
       id="Arrow2MendG"
       style="overflow:visible">
      <path
         d="M 8.7185878,4.0337352 -2.2072895,0.01601326 8.7185884,-4.0017078 c -1.7454984,2.3720609 -1.7354408,5.6174519 -6e-7,8.035443 z"
         transform="scale(-0.6,-0.6)"
         id="path6401"
         style="fill:#000080;fill-rule:evenodd;stroke:#000080;stroke-width:0.625;stroke-linejoin:round" />
    </marker>
    <marker
       refX="0"
       refY="0"
       orient="auto"
       id="Arrow2Mend-1o"
       style="overflow:visible">
      <path
         d="M 8.7185878,4.0337352 -2.2072895,0.01601326 8.7185884,-4.0017078 c -1.7454984,2.3720609 -1.7354408,5.6174519 -6e-7,8.035443 z"
         transform="scale(-0.6,-0.6)"
         id="path6491"
         style="fill:#000000;fill-rule:evenodd;stroke:#000000;stroke-width:0.625;stroke-linejoin:round" />
    </marker>
    <marker
       refX="0"
       refY="0"
       orient="auto"
       id="Arrow2MendW"
       style="overflow:visible">
      <path
         d="M 8.7185878,4.0337352 -2.2072895,0.01601326 8.7185884,-4.0017078 c -1.7454984,2.3720609 -1.7354408,5.6174519 -6e-7,8.035443 z"
         transform="scale(-0.6,-0.6)"
         id="path6494"
         style="fill:#000000;fill-rule:evenodd;stroke:#000000;stroke-width:0.625;stroke-linejoin:round" />
    </marker>
    <marker
       refX="0"
       refY="0"
       orient="auto"
       id="Arrow2MendP"
       style="overflow:visible">
      <path
         d="M 8.7185878,4.0337352 -2.2072895,0.01601326 8.7185884,-4.0017078 c -1.7454984,2.3720609 -1.7354408,5.6174519 -6e-7,8.035443 z"
         transform="scale(-0.6,-0.6)"
         id="path6497"
         style="fill:#000000;fill-rule:evenodd;stroke:#000000;stroke-width:0.625;stroke-linejoin:round" />
    </marker>
    <marker
       refX="0"
       refY="0"
       orient="auto"
       id="Arrow2Mend-1oH"
       style="overflow:visible">
      <path
         d="M 8.7185878,4.0337352 -2.2072895,0.01601326 8.7185884,-4.0017078 c -1.7454984,2.3720609 -1.7354408,5.6174519 -6e-7,8.035443 z"
         transform="scale(-0.6,-0.6)"
         id="path6598"
         style="fill:#000080;fill-rule:evenodd;stroke:#000080;stroke-width:0.625;stroke-linejoin:round" />
    </marker>
    <marker
       refX="0"
       refY="0"
       orient="auto"
       id="Arrow2MendWW"
       style="overflow:visible">
      <path
         d="M 8.7185878,4.0337352 -2.2072895,0.01601326 8.7185884,-4.0017078 c -1.7454984,2.3720609 -1.7354408,5.6174519 -6e-7,8.035443 z"
         transform="scale(-0.6,-0.6)"
         id="path6601"
         style="fill:#000080;fill-rule:evenodd;stroke:#000080;stroke-width:0.625;stroke-linejoin:round" />
    </marker>
    <marker
       refX="0"
       refY="0"
       orient="auto"
       id="Arrow2MendPq"
       style="overflow:visible">
      <path
         d="M 8.7185878,4.0337352 -2.2072895,0.01601326 8.7185884,-4.0017078 c -1.7454984,2.3720609 -1.7354408,5.6174519 -6e-7,8.035443 z"
         transform="scale(-0.6,-0.6)"
         id="path6604"
         style="fill:#000080;fill-rule:evenodd;stroke:#000080;stroke-width:0.625;stroke-linejoin:round" />
    </marker>
    <marker
       refX="0"
       refY="0"
       orient="auto"
       id="Arrow2MendG-7"
       style="overflow:visible">
      <path
         d="M 8.7185878,4.0337352 -2.2072895,0.01601326 8.7185884,-4.0017078 c -1.7454984,2.3720609 -1.7354408,5.6174519 -6e-7,8.035443 z"
         transform="scale(-0.6,-0.6)"
         id="path6401-8"
         style="fill:#000080;fill-rule:evenodd;stroke:#000080;stroke-width:0.625;stroke-linejoin:round" />
    </marker>
    <marker
       refX="0"
       refY="0"
       orient="auto"
       id="Arrow2Mend-1oH-4"
       style="overflow:visible">
      <path
         d="M 8.7185878,4.0337352 -2.2072895,0.01601326 8.7185884,-4.0017078 c -1.7454984,2.3720609 -1.7354408,5.6174519 -6e-7,8.035443 z"
         transform="scale(-0.6,-0.6)"
         id="path6598-3"
         style="fill:#000080;fill-rule:evenodd;stroke:#000080;stroke-width:0.625;stroke-linejoin:round" />
    </marker>
    <marker
       refX="0"
       refY="0"
       orient="auto"
       id="Arrow2MendPq-6"
       style="overflow:visible">
      <path
         d="M 8.7185878,4.0337352 -2.2072895,0.01601326 8.7185884,-4.0017078 c -1.7454984,2.3720609 -1.7354408,5.6174519 -6e-7,8.035443 z"
         transform="scale(-0.6,-0.6)"
         id="path6604-4"
         style="fill:#000080;fill-rule:evenodd;stroke:#000080;stroke-width:0.625;stroke-linejoin:round" />
    </marker>
    <marker
       refX="0"
       refY="0"
       orient="auto"
       id="Arrow2Mend-1P"
       style="overflow:visible">
      <path
         d="M 8.7185878,4.0337352 -2.2072895,0.01601326 8.7185884,-4.0017078 c -1.7454984,2.3720609 -1.7354408,5.6174519 -6e-7,8.035443 z"
         transform="scale(-0.6,-0.6)"
         id="path7851"
         style="fill:#2b1100;fill-rule:evenodd;stroke:#2b1100;stroke-width:0.625;stroke-linejoin:round" />
    </marker>
    <marker
       refX="0"
       refY="0"
       orient="auto"
       id="Arrow2Mend-1a"
       style="overflow:visible">
      <path
         d="M 8.7185878,4.0337352 -2.2072895,0.01601326 8.7185884,-4.0017078 c -1.7454984,2.3720609 -1.7354408,5.6174519 -6e-7,8.035443 z"
         transform="scale(-0.6,-0.6)"
         id="path7854"
         style="fill:#2b1100;fill-rule:evenodd;stroke:#2b1100;stroke-width:0.625;stroke-linejoin:round" />
    </marker>
    <marker
       refX="0"
       refY="0"
       orient="auto"
       id="Arrow2Mend-1V"
       style="overflow:visible">
      <path
         d="M 8.7185878,4.0337352 -2.2072895,0.01601326 8.7185884,-4.0017078 c -1.7454984,2.3720609 -1.7354408,5.6174519 -6e-7,8.035443 z"
         transform="scale(-0.6,-0.6)"
         id="path7857"
         style="fill:#2b1100;fill-rule:evenodd;stroke:#2b1100;stroke-width:0.625;stroke-linejoin:round" />
    </marker>
    <marker
       refX="0"
       refY="0"
       orient="auto"
       id="Arrow2Mend-1x"
       style="overflow:visible">
      <path
         d="M 8.7185878,4.0337352 -2.2072895,0.01601326 8.7185884,-4.0017078 c -1.7454984,2.3720609 -1.7354408,5.6174519 -6e-7,8.035443 z"
         transform="scale(-0.6,-0.6)"
         id="path7860"
         style="fill:#2b1100;fill-rule:evenodd;stroke:#2b1100;stroke-width:0.625;stroke-linejoin:round" />
    </marker>
    <marker
       refX="0"
       refY="0"
       orient="auto"
       id="Arrow2Mend-1c"
       style="overflow:visible">
      <path
         d="M 8.7185878,4.0337352 -2.2072895,0.01601326 8.7185884,-4.0017078 c -1.7454984,2.3720609 -1.7354408,5.6174519 -6e-7,8.035443 z"
         transform="scale(-0.6,-0.6)"
         id="path7863"
         style="fill:#2b1100;fill-rule:evenodd;stroke:#2b1100;stroke-width:0.625;stroke-linejoin:round" />
    </marker>
    <marker
       refX="0"
       refY="0"
       orient="auto"
       id="Arrow2Mend-1J"
       style="overflow:visible">
      <path
         d="M 8.7185878,4.0337352 -2.2072895,0.01601326 8.7185884,-4.0017078 c -1.7454984,2.3720609 -1.7354408,5.6174519 -6e-7,8.035443 z"
         transform="scale(-0.6,-0.6)"
         id="path7866"
         style="fill:#2b1100;fill-rule:evenodd;stroke:#2b1100;stroke-width:0.625;stroke-linejoin:round" />
    </marker>
    <marker
       refX="0"
       refY="0"
       orient="auto"
       id="Arrow2Mend-1aX"
       style="overflow:visible">
      <path
         d="M 8.7185878,4.0337352 -2.2072895,0.01601326 8.7185884,-4.0017078 c -1.7454984,2.3720609 -1.7354408,5.6174519 -6e-7,8.035443 z"
         transform="scale(-0.6,-0.6)"
         id="path8714"
         style="fill:#000080;fill-rule:evenodd;stroke:#000080;stroke-width:0.625;stroke-linejoin:round" />
    </marker>
    <marker
       refX="0"
       refY="0"
       orient="auto"
       id="Arrow2Mend-1aX-8"
       style="overflow:visible">
      <path
         d="M 8.7185878,4.0337352 -2.2072895,0.01601326 8.7185884,-4.0017078 c -1.7454984,2.3720609 -1.7354408,5.6174519 -6e-7,8.035443 z"
         transform="scale(-0.6,-0.6)"
         id="path8714-2"
         style="fill:#000080;fill-rule:evenodd;stroke:#000080;stroke-width:0.625;stroke-linejoin:round" />
    </marker>
    <marker
       refX="0"
       refY="0"
       orient="auto"
       id="Arrow2Mend-18"
       style="overflow:visible">
      <path
         d="M 8.7185878,4.0337352 -2.2072895,0.01601326 8.7185884,-4.0017078 c -1.7454984,2.3720609 -1.7354408,5.6174519 -6e-7,8.035443 z"
         transform="scale(-0.6,-0.6)"
         id="path9322"
         style="fill:#338000;fill-rule:evenodd;stroke:#338000;stroke-width:0.625;stroke-linejoin:round" />
    </marker>
    <marker
       refX="0"
       refY="0"
       orient="auto"
       id="Arrow2Mend-18-0"
       style="overflow:visible">
      <path
         d="M 8.7185878,4.0337352 -2.2072895,0.01601326 8.7185884,-4.0017078 c -1.7454984,2.3720609 -1.7354408,5.6174519 -6e-7,8.035443 z"
         transform="scale(-0.6,-0.6)"
         id="path9322-1"
         style="fill:#338000;fill-rule:evenodd;stroke:#338000;stroke-width:0.625;stroke-linejoin:round" />
    </marker>
    <inkscape:path-effect
       effect="spiro"
       id="path-effect9027-1" />
    <marker
       refX="0"
       refY="0"
       orient="auto"
       id="Arrow2Mend-18-5"
       style="overflow:visible">
      <path
         d="M 8.7185878,4.0337352 -2.2072895,0.01601326 8.7185884,-4.0017078 c -1.7454984,2.3720609 -1.7354408,5.6174519 -6e-7,8.035443 z"
         transform="scale(-0.6,-0.6)"
         id="path9322-5"
         style="fill:#338000;fill-rule:evenodd;stroke:#338000;stroke-width:0.625;stroke-linejoin:round" />
    </marker>
    <inkscape:path-effect
       effect="spiro"
       id="path-effect9027-4" />
    <marker
       refX="0"
       refY="0"
       orient="auto"
       id="Arrow2Mend-18-8"
       style="overflow:visible">
      <path
         d="M 8.7185878,4.0337352 -2.2072895,0.01601326 8.7185884,-4.0017078 c -1.7454984,2.3720609 -1.7354408,5.6174519 -6e-7,8.035443 z"
         transform="scale(-0.6,-0.6)"
         id="path9322-4"
         style="fill:#338000;fill-rule:evenodd;stroke:#338000;stroke-width:0.625;stroke-linejoin:round" />
    </marker>
    <inkscape:path-effect
       effect="spiro"
       id="path-effect9027-8" />
    <marker
       refX="0"
       refY="0"
       orient="auto"
       id="Arrow2Mend-18-85"
       style="overflow:visible">
      <path
         d="M 8.7185878,4.0337352 -2.2072895,0.01601326 8.7185884,-4.0017078 c -1.7454984,2.3720609 -1.7354408,5.6174519 -6e-7,8.035443 z"
         transform="scale(-0.6,-0.6)"
         id="path9322-3"
         style="fill:#338000;fill-rule:evenodd;stroke:#338000;stroke-width:0.625;stroke-linejoin:round" />
    </marker>
    <inkscape:path-effect
       effect="spiro"
       id="path-effect9027-3" />
    <marker
       refX="0"
       refY="0"
       orient="auto"
       id="Arrow2Mend-18-87"
       style="overflow:visible">
      <path
         d="M 8.7185878,4.0337352 -2.2072895,0.01601326 8.7185884,-4.0017078 c -1.7454984,2.3720609 -1.7354408,5.6174519 -6e-7,8.035443 z"
         transform="scale(-0.6,-0.6)"
         id="path9322-9"
         style="fill:#338000;fill-rule:evenodd;stroke:#338000;stroke-width:0.625;stroke-linejoin:round" />
    </marker>
    <inkscape:path-effect
       effect="spiro"
       id="path-effect9027-2" />
    <marker
       refX="0"
       refY="0"
       orient="auto"
       id="Arrow2Mend-18-4"
       style="overflow:visible">
      <path
         d="M 8.7185878,4.0337352 -2.2072895,0.01601326 8.7185884,-4.0017078 c -1.7454984,2.3720609 -1.7354408,5.6174519 -6e-7,8.035443 z"
         transform="scale(-0.6,-0.6)"
         id="path9322-8"
         style="fill:#338000;fill-rule:evenodd;stroke:#338000;stroke-width:0.625;stroke-linejoin:round" />
    </marker>
    <inkscape:path-effect
       effect="spiro"
       id="path-effect9027-87" />
    <marker
       refX="0"
       refY="0"
       orient="auto"
       id="Arrow2Mend-18-59"
       style="overflow:visible">
      <path
         d="M 8.7185878,4.0337352 -2.2072895,0.01601326 8.7185884,-4.0017078 c -1.7454984,2.3720609 -1.7354408,5.6174519 -6e-7,8.035443 z"
         transform="scale(-0.6,-0.6)"
         id="path9322-2"
         style="fill:#338000;fill-rule:evenodd;stroke:#338000;stroke-width:0.625;stroke-linejoin:round" />
    </marker>
    <inkscape:path-effect
       effect="spiro"
       id="path-effect9027-83" />
    <marker
       refX="0"
       refY="0"
       orient="auto"
       id="Arrow2Mend-18-81"
       style="overflow:visible">
      <path
         d="M 8.7185878,4.0337352 -2.2072895,0.01601326 8.7185884,-4.0017078 c -1.7454984,2.3720609 -1.7354408,5.6174519 -6e-7,8.035443 z"
         transform="scale(-0.6,-0.6)"
         id="path9322-89"
         style="fill:#338000;fill-rule:evenodd;stroke:#338000;stroke-width:0.625;stroke-linejoin:round" />
    </marker>
    <inkscape:path-effect
       effect="spiro"
       id="path-effect9027-9" />
    <marker
       refX="0"
       refY="0"
       orient="auto"
       id="Arrow2Mend-18-45"
       style="overflow:visible">
      <path
         d="M 8.7185878,4.0337352 -2.2072895,0.01601326 8.7185884,-4.0017078 c -1.7454984,2.3720609 -1.7354408,5.6174519 -6e-7,8.035443 z"
         transform="scale(-0.6,-0.6)"
         id="path9322-57"
         style="fill:#338000;fill-rule:evenodd;stroke:#338000;stroke-width:0.625;stroke-linejoin:round" />
    </marker>
    <inkscape:path-effect
       effect="spiro"
       id="path-effect9027-0" />
    <marker
       refX="0"
       refY="0"
       orient="auto"
       id="Arrow2Mend-18-57"
       style="overflow:visible">
      <path
         d="M 8.7185878,4.0337352 -2.2072895,0.01601326 8.7185884,-4.0017078 c -1.7454984,2.3720609 -1.7354408,5.6174519 -6e-7,8.035443 z"
         transform="scale(-0.6,-0.6)"
         id="path9322-80"
         style="fill:#338000;fill-rule:evenodd;stroke:#338000;stroke-width:0.625;stroke-linejoin:round" />
    </marker>
    <inkscape:path-effect
       effect="spiro"
       id="path-effect9027-13" />
    <marker
       refX="0"
       refY="0"
       orient="auto"
       id="Arrow2Mend-18-1"
       style="overflow:visible">
      <path
         d="M 8.7185878,4.0337352 -2.2072895,0.01601326 8.7185884,-4.0017078 c -1.7454984,2.3720609 -1.7354408,5.6174519 -6e-7,8.035443 z"
         transform="scale(-0.6,-0.6)"
         id="path9322-0"
         style="fill:#338000;fill-rule:evenodd;stroke:#338000;stroke-width:0.625;stroke-linejoin:round" />
    </marker>
    <inkscape:path-effect
       effect="spiro"
       id="path-effect9027-6" />
    <marker
       refX="0"
       refY="0"
       orient="auto"
       id="Arrow2Mend-18-7"
       style="overflow:visible">
      <path
         d="M 8.7185878,4.0337352 -2.2072895,0.01601326 8.7185884,-4.0017078 c -1.7454984,2.3720609 -1.7354408,5.6174519 -6e-7,8.035443 z"
         transform="scale(-0.6,-0.6)"
         id="path9322-46"
         style="fill:#338000;fill-rule:evenodd;stroke:#338000;stroke-width:0.625;stroke-linejoin:round" />
    </marker>
    <inkscape:path-effect
       effect="spiro"
       id="path-effect9027-08" />
    <marker
       refX="0"
       refY="0"
       orient="auto"
       id="Arrow2Mend-18-811"
       style="overflow:visible">
      <path
         d="M 8.7185878,4.0337352 -2.2072895,0.01601326 8.7185884,-4.0017078 c -1.7454984,2.3720609 -1.7354408,5.6174519 -6e-7,8.035443 z"
         transform="scale(-0.6,-0.6)"
         id="path9322-00"
         style="fill:#338000;fill-rule:evenodd;stroke:#338000;stroke-width:0.625;stroke-linejoin:round" />
    </marker>
    <inkscape:path-effect
       effect="spiro"
       id="path-effect9027-60" />
    <marker
       refX="0"
       refY="0"
       orient="auto"
       id="Arrow2Mend-18-73"
       style="overflow:visible">
      <path
         d="M 8.7185878,4.0337352 -2.2072895,0.01601326 8.7185884,-4.0017078 c -1.7454984,2.3720609 -1.7354408,5.6174519 -6e-7,8.035443 z"
         transform="scale(-0.6,-0.6)"
         id="path9322-7"
         style="fill:#338000;fill-rule:evenodd;stroke:#338000;stroke-width:0.625;stroke-linejoin:round" />
    </marker>
    <inkscape:path-effect
       effect="spiro"
       id="path-effect9027-64" />
    <marker
       refX="0"
       refY="0"
       orient="auto"
       id="Arrow2Mend-18-41"
       style="overflow:visible">
      <path
         d="M 8.7185878,4.0337352 -2.2072895,0.01601326 8.7185884,-4.0017078 c -1.7454984,2.3720609 -1.7354408,5.6174519 -6e-7,8.035443 z"
         transform="scale(-0.6,-0.6)"
         id="path9322-54"
         style="fill:#338000;fill-rule:evenodd;stroke:#338000;stroke-width:0.625;stroke-linejoin:round" />
    </marker>
    <inkscape:path-effect
       effect="spiro"
       id="path-effect9027-40" />
    <marker
       refX="0"
       refY="0"
       orient="auto"
       id="Arrow2Mend-18c"
       style="overflow:visible">
      <path
         d="M 8.7185878,4.0337352 -2.2072895,0.01601326 8.7185884,-4.0017078 c -1.7454984,2.3720609 -1.7354408,5.6174519 -6e-7,8.035443 z"
         transform="scale(-0.6,-0.6)"
         id="path10168"
         style="fill:#003380;fill-rule:evenodd;stroke:#003380;stroke-width:0.625;stroke-linejoin:round" />
    </marker>
    <marker
       refX="0"
       refY="0"
       orient="auto"
       id="Arrow2Mend-18B"
       style="overflow:visible">
      <path
         d="M 8.7185878,4.0337352 -2.2072895,0.01601326 8.7185884,-4.0017078 c -1.7454984,2.3720609 -1.7354408,5.6174519 -6e-7,8.035443 z"
         transform="scale(-0.6,-0.6)"
         id="path10171"
         style="fill:#003380;fill-rule:evenodd;stroke:#003380;stroke-width:0.625;stroke-linejoin:round" />
    </marker>
    <marker
       refX="0"
       refY="0"
       orient="auto"
       id="Arrow2Mend-18s"
       style="overflow:visible">
      <path
         d="M 8.7185878,4.0337352 -2.2072895,0.01601326 8.7185884,-4.0017078 c -1.7454984,2.3720609 -1.7354408,5.6174519 -6e-7,8.035443 z"
         transform="scale(-0.6,-0.6)"
         id="path10174"
         style="fill:#003380;fill-rule:evenodd;stroke:#003380;stroke-width:0.625;stroke-linejoin:round" />
    </marker>
    <marker
       refX="0"
       refY="0"
       orient="auto"
       id="Arrow2Mend-18cO"
       style="overflow:visible">
      <path
         d="M 8.7185878,4.0337352 -2.2072895,0.01601326 8.7185884,-4.0017078 c -1.7454984,2.3720609 -1.7354408,5.6174519 -6e-7,8.035443 z"
         transform="scale(-0.6,-0.6)"
         id="path10607"
         style="fill:#445500;fill-rule:evenodd;stroke:#445500;stroke-width:0.625;stroke-linejoin:round" />
    </marker>
    <marker
       refX="0"
       refY="0"
       orient="auto"
       id="Arrow2Mend-18sr"
       style="overflow:visible">
      <path
         d="M 8.7185878,4.0337352 -2.2072895,0.01601326 8.7185884,-4.0017078 c -1.7454984,2.3720609 -1.7354408,5.6174519 -6e-7,8.035443 z"
         transform="scale(-0.6,-0.6)"
         id="path10610"
         style="fill:#445500;fill-rule:evenodd;stroke:#445500;stroke-width:0.625;stroke-linejoin:round" />
    </marker>
    <marker
       refX="0"
       refY="0"
       orient="auto"
       id="Arrow2Mend-18Bm"
       style="overflow:visible">
      <path
         d="M 8.7185878,4.0337352 -2.2072895,0.01601326 8.7185884,-4.0017078 c -1.7454984,2.3720609 -1.7354408,5.6174519 -6e-7,8.035443 z"
         transform="scale(-0.6,-0.6)"
         id="path10613"
         style="fill:#445500;fill-rule:evenodd;stroke:#445500;stroke-width:0.625;stroke-linejoin:round" />
    </marker>
  </defs>
  <metadata
     id="metadata7">
    <rdf:RDF>
      <cc:Work
         rdf:about="">
        <dc:format>image/svg+xml</dc:format>
        <dc:type
           rdf:resource="http://purl.org/dc/dcmitype/StillImage" />
        <dc:title></dc:title>
      </cc:Work>
    </rdf:RDF>
  </metadata>
  <g
     transform="translate(3.8000488e-8,-0.55299377)"
     id="layer1">
    <text
       x="298.96838"
       y="125.37215"
       id="text6827"
       xml:space="preserve"
       style="font-size:12px;font-style:normal;font-weight:normal;line-height:125%;letter-spacing:0px;word-spacing:0px;fill:#000000;fill-opacity:1;stroke:none;font-family:Sans"><tspan
         x="298.96838"
         y="125.37215"
         id="tspan6829" /></text>
    <path
       d="m 76.798865,70.26626 c 17.086709,-5.49259 30.220465,-6.23954 39.020305,-3.55924 8.79984,2.6803 15.00862,5.80007 15.00862,5.80007"
       id="path3126-6-1"
       style="fill:none;stroke:#000080;stroke-width:1px;stroke-linecap:butt;stroke-linejoin:miter;stroke-opacity:1;marker-end:url(#Arrow2MendPq)" />
    <g
       transform="translate(-13.340716,-66)"
       id="g10006">
      <g
         id="g9996">
        <text
           x="149.65942"
           y="280.42459"
           id="text6835"
           xml:space="preserve"
           style="font-size:12px;font-style:normal;font-weight:normal;line-height:125%;letter-spacing:0px;word-spacing:0px;fill:#aa0000;fill-opacity:1;stroke:none;font-family:Sans"><tspan
             x="149.65942"
             y="280.42459"
             id="tspan6837">nothing</tspan></text>
        <rect
           width="53.776703"
           height="17.797272"
           x="145.69295"
           y="268.21539"
           id="rect6843"
           style="fill:none;stroke:#aa0000;stroke-width:0.8051675" />
      </g>
      <g
         id="g10001">
        <text
           x="237.69911"
           y="281.58768"
           id="text6839"
           xml:space="preserve"
           style="font-size:12px;font-style:normal;font-weight:normal;line-height:125%;letter-spacing:0px;word-spacing:0px;fill:#aa0000;fill-opacity:1;stroke:none;font-family:Sans"><tspan
             x="237.69911"
             y="281.58768"
             id="tspan6841">frown</tspan></text>
        <rect
           width="53.776703"
           height="17.797272"
           x="227.27267"
           y="268.21539"
           id="rect6843-7"
           style="fill:none;stroke:#aa0000;stroke-width:0.8051675" />
      </g>
      <g
         id="g9991">
        <text
           x="79.432205"
           y="280.42459"
           id="text6831"
           xml:space="preserve"
           style="font-size:12px;font-style:normal;font-weight:normal;line-height:125%;letter-spacing:0px;word-spacing:0px;fill:#aa0000;fill-opacity:1;stroke:none;font-family:Sans"><tspan
             x="79.432205"
             y="280.42459"
             id="tspan6833"
             style="fill:#aa0000">grin</tspan></text>
        <rect
           width="53.776703"
           height="17.797272"
           x="64.11319"
           y="268.21539"
           id="rect6843-8"
           style="fill:none;stroke:#aa0000;stroke-width:0.8051675" />
      </g>
    </g>
    <path
       d="m 58.86297,89.45702 8.273339,112.06613"
       id="path7353"
       style="fill:none;stroke:#2b1100;stroke-width:1;stroke-linecap:butt;stroke-linejoin:miter;stroke-miterlimit:4;stroke-opacity:1;stroke-dasharray:8, 1;stroke-dashoffset:0;marker-end:url(#Arrow2Mend-1J)" />
    <path
       d="M 73.153283,88.7049 146.86121,201.14709"
       id="path7357"
       style="fill:none;stroke:#2b1100;stroke-width:1;stroke-linecap:butt;stroke-linejoin:miter;stroke-miterlimit:4;stroke-opacity:1;stroke-dasharray:8, 1;stroke-dashoffset:0;marker-end:url(#Arrow2Mend-1x)" />
    <path
       d="m 146.86121,89.08096 27.45243,112.44219"
       id="path7361"
       style="fill:none;stroke:#2b1100;stroke-width:1;stroke-linecap:butt;stroke-linejoin:miter;stroke-miterlimit:4;stroke-opacity:1;stroke-dasharray:8, 1;stroke-dashoffset:0;marker-end:url(#Arrow2Mend-1V)" />
    <path
       d="m 151.75,89.08096 76.71642,112.44219"
       id="path7365"
       style="fill:none;stroke:#2b1100;stroke-width:1;stroke-linecap:butt;stroke-linejoin:miter;stroke-miterlimit:4;stroke-opacity:1;stroke-dasharray:8, 1;stroke-dashoffset:0;marker-end:url(#Arrow2Mend-1P)" />
    <path
       d="m 257.04705,89.08096 -5.64092,112.06613"
       id="path7369"
       style="fill:none;stroke:#2b1100;stroke-width:1;stroke-linecap:butt;stroke-linejoin:miter;stroke-miterlimit:4;stroke-opacity:1;stroke-dasharray:8, 1;stroke-dashoffset:0;marker-end:url(#Arrow2Mend-1c)" />
    <path
       d="M 241.25249,88.32884 89.699964,201.1471"
       id="path7373"
       style="fill:none;stroke:#2b1100;stroke-width:1;stroke-linecap:butt;stroke-linejoin:miter;stroke-miterlimit:4;stroke-opacity:1;stroke-dasharray:8, 1;stroke-dashoffset:0;marker-end:url(#Arrow2Mend-1a)" />
    <text
       x="47.70084"
       y="185.71164"
       id="text8039"
       xml:space="preserve"
       style="font-size:10px;font-style:normal;font-weight:normal;line-height:125%;letter-spacing:0px;word-spacing:0px;fill:#2b1100;fill-opacity:1;stroke:none;font-family:Sans"><tspan
         x="47.70084"
         y="185.71164"
         id="tspan8041">0.9</tspan></text>
    <text
       x="258.29492"
       y="185.71164"
       id="text8043"
       xml:space="preserve"
       style="font-size:10px;font-style:normal;font-weight:normal;line-height:125%;letter-spacing:0px;word-spacing:0px;fill:#2b1100;fill-opacity:1;stroke:none;font-family:Sans"><tspan
         x="258.29492"
         y="185.71164"
         id="tspan8045">0.7</tspan></text>
    <text
       x="137.57941"
       y="185.71164"
       id="text8047"
       xml:space="preserve"
       style="font-size:10px;font-style:normal;font-weight:normal;line-height:125%;letter-spacing:0px;word-spacing:0px;fill:#2b1100;fill-opacity:1;stroke:none;font-family:Sans"><tspan
         x="137.57941"
         y="185.71164"
         id="tspan8049">0.1</tspan></text>
    <text
       x="218.43246"
       y="185.71164"
       id="text8051"
       xml:space="preserve"
       style="font-size:10px;font-style:normal;font-weight:normal;line-height:125%;letter-spacing:0px;word-spacing:0px;fill:#2b1100;fill-opacity:1;stroke:none;font-family:Sans"><tspan
         x="218.43246"
         y="185.71164"
         id="tspan8053">0.5</tspan></text>
    <text
       x="172.92911"
       y="185.71164"
       id="text8055"
       xml:space="preserve"
       style="font-size:10px;font-style:normal;font-weight:normal;line-height:125%;letter-spacing:0px;word-spacing:0px;fill:#2b1100;fill-opacity:1;stroke:none;font-family:Sans"><tspan
         x="172.92911"
         y="185.71164"
         id="tspan8057">0.5</tspan></text>
    <text
       x="95.084518"
       y="185.71164"
       id="text8059"
       xml:space="preserve"
       style="font-size:10px;font-style:normal;font-weight:normal;line-height:125%;letter-spacing:0px;word-spacing:0px;fill:#2b1100;fill-opacity:1;stroke:none;font-family:Sans"><tspan
         x="95.084518"
         y="185.71164"
         id="tspan8061">0.3</tspan></text>
    <g
       transform="translate(-13.340716,-66)"
       id="g8961">
      <g
         transform="translate(0,-21.218124)"
         id="g3105">
        <path
           d="m 75.192341,166.86032 a 21.661369,9.5857782 0 1 1 -43.322739,0 21.661369,9.5857782 0 1 1 43.322739,0 z"
           transform="matrix(1.6820471,0,0,1,-13.688554,0)"
           id="path2987"
           style="fill:none;stroke:#000000" />
        <g
           id="g3100">
          <text
             x="49.910839"
             y="170.17087"
             id="text3048"
             xml:space="preserve"
             style="font-size:40px;font-style:normal;font-weight:normal;line-height:125%;letter-spacing:0px;word-spacing:0px;fill:#000000;fill-opacity:1;stroke:none;font-family:Sans"><tspan
               x="49.910839"
               y="170.17087"
               id="tspan3050"
               style="font-size:12px">s<tspan
   id="tspan3056"
   style="font-size:65.00091553%;baseline-shift:sub">1</tspan>:happy</tspan></text>
        </g>
      </g>
      <g
         transform="translate(14.976149,-20.595677)"
         id="g3094">
        <path
           d="m 75.192341,166.86032 a 21.661369,9.5857782 0 1 1 -43.322739,0 21.661369,9.5857782 0 1 1 43.322739,0 z"
           transform="matrix(1.6820471,0,0,1,67.563523,-0.62244747)"
           id="path2987-5"
           style="fill:none;stroke:#000000" />
        <text
           x="139.56819"
           y="169.59647"
           id="text3058"
           xml:space="preserve"
           style="font-size:12px;font-style:normal;font-weight:normal;line-height:125%;letter-spacing:0px;word-spacing:0px;fill:#000000;fill-opacity:1;stroke:none;font-family:Sans"><tspan
             x="139.56819"
             y="169.59647"
             id="tspan3060">s<tspan
   id="tspan3062"
   style="font-size:65.00091553%;baseline-shift:sub">2</tspan>:sad</tspan></text>
      </g>
      <g
         transform="translate(22.000018,-20.468494)"
         id="g3088">
        <path
           d="m 75.192341,166.86032 a 21.661369,9.5857782 0 1 1 -43.322739,0 21.661369,9.5857782 0 1 1 43.322739,0 z"
           transform="matrix(1.6820471,0,0,1,156.76788,-0.74963)"
           id="path2987-5-7"
           style="fill:none;stroke:#000000" />
        <text
           x="221.70322"
           y="168.21582"
           id="text3082"
           xml:space="preserve"
           style="font-size:12px;font-style:normal;font-weight:normal;line-height:125%;letter-spacing:0px;word-spacing:0px;fill:#000000;fill-opacity:1;stroke:none;font-family:Sans"><tspan
             x="221.70322"
             y="168.21582"
             id="tspan3084">s<tspan
   id="tspan3086"
   style="font-size:65.00091553%;baseline-shift:sub">3</tspan>:angry</tspan></text>
      </g>
    </g>
    <path
       d="M 254.15941,69.31281 C 238.61376,52.16315 181.79729,44.88937 140.49376,45.134 112.37693,45.30053 66.939315,51.02792 48.514052,70.43582"
       id="path3126-3"
       style="fill:none;stroke:#000080;stroke-width:1px;stroke-linecap:butt;stroke-linejoin:miter;stroke-opacity:1;marker-end:url(#Arrow2MendWW)" />
    <path
       d="m 172.12785,70.06493 c 17.08671,-5.49259 30.22047,-6.23954 39.02031,-3.55924 8.79984,2.6803 15.00862,5.80007 15.00862,5.80007"
       id="path3126-6"
       style="fill:none;stroke:#000080;stroke-width:1px;stroke-linecap:butt;stroke-linejoin:miter;stroke-opacity:1;marker-end:url(#Arrow2MendPq)" />
    <text
       x="93.47226"
       y="63.139648"
       id="text6379"
       xml:space="preserve"
       style="font-size:12px;font-style:normal;font-weight:normal;line-height:125%;letter-spacing:0px;word-spacing:0px;fill:#000000;fill-opacity:1;stroke:none;font-family:Sans"><tspan
         x="93.47226"
         y="63.139648"
         id="tspan6381"
         style="font-size:10px;fill:#000080">0.3</tspan></text>
    <text
       x="125.39737"
       y="41.518379"
       id="text6684"
       xml:space="preserve"
       style="font-size:12px;font-style:normal;font-weight:normal;line-height:125%;letter-spacing:0px;word-spacing:0px;fill:#000000;fill-opacity:1;stroke:none;font-family:Sans"><tspan
         x="125.39737"
         y="41.518379"
         id="tspan6686"
         style="font-size:10px;fill:#000080">0.4</tspan></text>
    <text
       x="169.19136"
       y="106.73184"
       id="text6684-4"
       xml:space="preserve"
       style="font-size:12px;font-style:normal;font-weight:normal;line-height:125%;letter-spacing:0px;word-spacing:0px;fill:#000000;fill-opacity:1;stroke:none;font-family:Sans"><tspan
         x="169.19136"
         y="106.73184"
         id="tspan6686-2"
         style="font-size:10px;fill:#000080">0.6</tspan></text>
    <path
       d="m 232.39833,88.06551 c -31.35846,22.28652 -58.98483,1.94715 -58.98483,1.94715"
       id="path3126-4"
       style="fill:none;stroke:#000080;stroke-width:1px;stroke-linecap:butt;stroke-linejoin:miter;stroke-opacity:1;marker-end:url(#Arrow2MendG)" />
    <text
       x="-0.3536692"
       y="85.56842"
       id="text6684-8"
       xml:space="preserve"
       style="font-size:12px;font-style:normal;font-weight:normal;line-height:125%;letter-spacing:0px;word-spacing:0px;fill:#000000;fill-opacity:1;stroke:none;font-family:Sans"><tspan
         x="-0.3536692"
         y="85.56842"
         id="tspan6686-4"
         style="font-size:10px;fill:#000080">0.7</tspan></text>
    <text
       x="88.990578"
       y="102.22974"
       id="text6778"
       xml:space="preserve"
       style="font-size:12px;font-style:normal;font-weight:normal;line-height:125%;letter-spacing:0px;word-spacing:0px;fill:#000000;fill-opacity:1;stroke:none;font-family:Sans"><tspan
         x="88.990578"
         y="102.22974"
         id="tspan6780"
         style="font-size:10px;fill:#000080">0.1</tspan></text>
    <text
       x="176.59402"
       y="62.796097"
       id="text6684-6"
       xml:space="preserve"
       style="font-size:12px;font-style:normal;font-weight:normal;line-height:125%;letter-spacing:0px;word-spacing:0px;fill:#000000;fill-opacity:1;stroke:none;font-family:Sans"><tspan
         x="176.59402"
         y="62.796097"
         id="tspan6686-3"
         style="font-size:10px;fill:#000080">0.9</tspan></text>
    <path
       d="m 34.502404,85.51235 c 1.898068,1.75391 3.072047,4.17692 3.072047,6.85329 0,5.35276 -4.695917,9.69202 -10.488626,9.69202 -5.792708,0 -10.488627,-4.33926 -10.488627,-9.69202 0,-5.35276 4.695919,-9.69202 10.488627,-9.69202"
       id="path8427"
       style="fill:none;stroke:#000080;stroke-width:1;stroke-miterlimit:4;stroke-dasharray:none;stroke-dashoffset:0;marker-end:url(#Arrow2Mend-1aX)" />
    <path
       d="m 129.45777,84.78579 c 1.89807,1.75391 3.07205,4.17692 3.07205,6.85329 0,5.35276 -4.69592,9.69202 -10.48863,9.69202 -5.79271,0 -10.48863,-4.33926 -10.48863,-9.69202 0,-5.35276 4.69592,-9.69202 10.48863,-9.69202"
       id="path8427-2"
       style="fill:none;stroke:#000080;stroke-width:1;stroke-miterlimit:4;stroke-dasharray:none;stroke-dashoffset:0;marker-end:url(#Arrow2Mend-1aX)" />
    <text
       x="16.02914"
       y="267.70142"
       id="text8979"
       xml:space="preserve"
       style="font-size:12px;font-style:normal;font-weight:normal;line-height:125%;letter-spacing:0px;word-spacing:0px;fill:#aa0000;fill-opacity:1;stroke:none;font-family:Sans"><tspan
         x="16.02914"
         y="267.70142"
         id="tspan8981">grin, nothing, nothing, frown, grin, frown</tspan></text>
    <path
       d="M 174.48339,17.397049 240.06708,70.03304"
       id="path9025"
       style="fill:#008000;stroke:#445500;stroke-width:1;stroke-linecap:butt;stroke-linejoin:miter;stroke-miterlimit:4;stroke-opacity:1;stroke-dasharray:6, 1;stroke-dashoffset:0;marker-end:url(#Arrow2Mend-18cO)" />
    <path
       d="M 158.65813,23.571723 159.18157,68.9788"
       id="path9025-6"
       style="fill:#008000;stroke:#445500;stroke-width:1;stroke-linecap:butt;stroke-linejoin:miter;stroke-miterlimit:4;stroke-opacity:1;stroke-dasharray:6, 1;stroke-dashoffset:0;marker-end:url(#Arrow2Mend-18sr)" />
    <path
       d="M 136.28802,18.461378 62.112669,69.49094"
       id="path9025-47"
       style="fill:#008000;stroke:#445500;stroke-width:1;stroke-linecap:butt;stroke-linejoin:miter;stroke-miterlimit:4;stroke-opacity:1;stroke-dasharray:6, 1;stroke-dashoffset:0;marker-end:url(#Arrow2Mend-18Bm)" />
    <g
       transform="translate(9.5508496,-70.819277)"
       id="g10485">
      <text
         x="130.22974"
         y="87.809532"
         id="text9856"
         xml:space="preserve"
         style="font-size:12px;font-style:normal;font-weight:normal;line-height:125%;letter-spacing:0px;word-spacing:0px;fill:#000000;fill-opacity:1;stroke:none;font-family:Sans"><tspan
           x="130.22974"
           y="87.809532"
           id="tspan9858">Start</tspan></text>
      <path
         d="M 98.904009,71.971512 A 19.367136,9.0254602 0 1 1 98.88735,71.597248"
         transform="translate(65.613769,11.469857)"
         id="path10020"
         style="fill:none;stroke:#000000;stroke-width:1;stroke-miterlimit:4;stroke-dasharray:none;stroke-dashoffset:0" />
      <path
         d="m 97.642906,71.971512 a 18.106033,9.2518587 0 1 1 -0.01557,-0.383653"
         transform="matrix(1.177658,0,0,1.177658,51.483407,-1.316458)"
         id="path10020-0"
         style="fill:none;stroke:#000000;stroke-width:1;stroke-miterlimit:4;stroke-dasharray:none;stroke-dashoffset:0" />
    </g>
    <text
       x="101.11713"
       y="25.719612"
       id="text10932"
       xml:space="preserve"
       style="font-size:10px;font-style:normal;font-weight:normal;line-height:125%;letter-spacing:0px;word-spacing:0px;fill:#445500;fill-opacity:1;stroke:none;font-family:Sans"><tspan
         x="101.11713"
         y="25.719612"
         id="tspan10934">0.55</tspan></text>
    <text
       x="141.67937"
       y="61.060966"
       id="text10936"
       xml:space="preserve"
       style="font-size:10px;font-style:normal;font-weight:normal;line-height:125%;letter-spacing:0px;word-spacing:0px;fill:#445500;fill-opacity:1;stroke:none;font-family:Sans"><tspan
         x="141.67937"
         y="61.060966"
         id="tspan10938">0.1</tspan></text>
    <text
       x="211.15727"
       y="43.791901"
       id="text10940"
       xml:space="preserve"
       style="font-size:10px;font-style:normal;font-weight:normal;line-height:125%;letter-spacing:0px;word-spacing:0px;fill:#445500;fill-opacity:1;stroke:none;font-family:Sans"><tspan
         x="211.15727"
         y="43.791901"
         id="tspan10942">0.35</tspan></text>
    <rect
       width="292.07996"
       height="296.49805"
       x="-3.800049e-08"
       y="0.55299377"
       id="rect11296"
       style="fill:none;stroke:none" />
  </g>
</svg>
