<?xml version="1.0" encoding="UTF-8" standalone="no"?>
<!-- Created with Inkscape (http://www.inkscape.org/) -->

<svg
   xmlns:dc="http://purl.org/dc/elements/1.1/"
   xmlns:cc="http://creativecommons.org/ns#"
   xmlns:rdf="http://www.w3.org/1999/02/22-rdf-syntax-ns#"
   xmlns:svg="http://www.w3.org/2000/svg"
   xmlns="http://www.w3.org/2000/svg"
   xmlns:xlink="http://www.w3.org/1999/xlink"
   xmlns:sodipodi="http://sodipodi.sourceforge.net/DTD/sodipodi-0.dtd"
   xmlns:inkscape="http://www.inkscape.org/namespaces/inkscape"
   width="873.33905"
   height="266.85547"
   id="svg5239"
   version="1.1"
   inkscape:version="0.48.2 r9819"
   sodipodi:docname="time_series_problems_2_2.svg">
  <defs
     id="defs5241">
    <marker
       inkscape:stockid="Arrow2Lend"
       orient="auto"
       refY="0.0"
       refX="0.0"
       id="Arrow2Lend"
       style="overflow:visible;">
      <path
         id="path4308"
         style="font-size:12.0;fill-rule:evenodd;stroke-width:0.62500000;stroke-linejoin:round;"
         d="M 8.7185878,4.0337352 L -2.2072895,0.016013256 L 8.7185884,-4.0017078 C 6.9730900,-1.6296469 6.9831476,1.6157441 8.7185878,4.0337352 z "
         transform="scale(1.1) rotate(180) translate(1,0)" />
    </marker>
    <linearGradient
       gradientTransform="translate(4.9548495,41.267968)"
       inkscape:collect="always"
       xlink:href="#linearGradient4417"
       id="linearGradient5077"
       gradientUnits="userSpaceOnUse"
       spreadMethod="pad"
       x1="211.98117"
       y1="689.35736"
       x2="227.627"
       y2="87.306458" />
    <linearGradient
       id="linearGradient4417">
      <stop
         id="stop4419"
         offset="0"
         style="stop-color:#a2c8e3;stop-opacity:0.06550218" />
      <stop
         style="stop-color:#516471;stop-opacity:0.49803922;"
         offset="0.31907585"
         id="stop4421" />
      <stop
         id="stop4423"
         offset="1"
         style="stop-color:#000000;stop-opacity:0;" />
    </linearGradient>
    <linearGradient
       gradientTransform="translate(269.61482,368.5574)"
       inkscape:collect="always"
       xlink:href="#linearGradient4417-0"
       id="linearGradient5077-3"
       gradientUnits="userSpaceOnUse"
       spreadMethod="pad"
       x1="211.98117"
       y1="689.35736"
       x2="227.627"
       y2="87.306458" />
    <linearGradient
       id="linearGradient4417-0">
      <stop
         id="stop4419-9"
         offset="0"
         style="stop-color:#a2c8e3;stop-opacity:0.06550218" />
      <stop
         style="stop-color:#516471;stop-opacity:0.49803922;"
         offset="0.31907585"
         id="stop4421-6" />
      <stop
         id="stop4423-3"
         offset="1"
         style="stop-color:#000000;stop-opacity:0;" />
    </linearGradient>
    <linearGradient
       inkscape:collect="always"
       xlink:href="#linearGradient4417-0"
       id="linearGradient6262"
       gradientUnits="userSpaceOnUse"
       gradientTransform="translate(269.61482,368.5574)"
       spreadMethod="pad"
       x1="211.98117"
       y1="689.35736"
       x2="227.627"
       y2="87.306458" />
    <linearGradient
       inkscape:collect="always"
       xlink:href="#linearGradient4417-0"
       id="linearGradient6941"
       gradientUnits="userSpaceOnUse"
       gradientTransform="translate(518.18625,39.98597)"
       spreadMethod="pad"
       x1="211.98117"
       y1="689.35736"
       x2="227.627"
       y2="87.306458" />
    <linearGradient
       inkscape:collect="always"
       xlink:href="#linearGradient4417"
       id="linearGradient6338"
       gradientUnits="userSpaceOnUse"
       gradientTransform="translate(4.9548495,39.98597)"
       spreadMethod="pad"
       x1="211.98117"
       y1="689.35736"
       x2="227.627"
       y2="87.306458" />
  </defs>
  <sodipodi:namedview
     id="base"
     pagecolor="#ffffff"
     bordercolor="#666666"
     borderopacity="1.0"
     inkscape:pageopacity="0.0"
     inkscape:pageshadow="2"
     inkscape:zoom="2.8"
     inkscape:cx="644.70844"
     inkscape:cy="107.36185"
     inkscape:document-units="px"
     inkscape:current-layer="layer1"
     showgrid="false"
     inkscape:window-width="1280"
     inkscape:window-height="723"
     inkscape:window-x="0"
     inkscape:window-y="25"
     inkscape:window-maximized="1"
     fit-margin-top="0"
     fit-margin-left="0"
     fit-margin-right="0"
     fit-margin-bottom="0" />
  <metadata
     id="metadata5244">
    <rdf:RDF>
      <cc:Work
         rdf:about="">
        <dc:format>image/svg+xml</dc:format>
        <dc:type
           rdf:resource="http://purl.org/dc/dcmitype/StillImage" />
        <dc:title />
      </cc:Work>
    </rdf:RDF>
  </metadata>
  <g
     inkscape:label="Layer 1"
     inkscape:groupmode="layer"
     id="layer1"
     transform="translate(-51.271118,-63.0634)">
    <flowRoot
       transform="translate(-2.4671051,123.4036)"
       style="font-size:18px;font-style:normal;font-variant:normal;font-weight:normal;font-stretch:normal;text-align:start;line-height:125%;letter-spacing:0px;word-spacing:0px;writing-mode:lr-tb;text-anchor:start;fill:#000000;fill-opacity:1;stroke:none;font-family:Sans;-inkscape-font-specification:Sans"
       id="flowRoot4478-0"
       xml:space="preserve"><flowRegion
         id="flowRegion4480-4"><rect
           style="font-size:18px;font-style:normal;font-variant:normal;font-weight:normal;font-stretch:normal;text-align:start;line-height:125%;writing-mode:lr-tb;text-anchor:start;font-family:Sans;-inkscape-font-specification:Sans"
           y="93.727417"
           x="132.32999"
           height="22.223356"
           width="191.92899"
           id="rect4482-3" /></flowRegion><flowPara
         id="flowPara4484-1" /><flowPara
         id="flowPara4486-5" /></flowRoot>    <flowRoot
       xml:space="preserve"
       id="flowRoot4470"
       style="font-size:20px;font-style:normal;font-weight:normal;line-height:125%;letter-spacing:0px;word-spacing:0px;fill:#000000;fill-opacity:1;stroke:none;font-family:Bitstream Vera Sans"
       transform="translate(28.608137,43.01642)"><flowRegion
         id="flowRegion4472"><rect
           id="rect4474"
           width="275.77164"
           height="37.375645"
           x="85.862968"
           y="13.925366" /></flowRegion><flowPara
         id="flowPara4476"
         style="font-size:24px;font-style:normal;font-variant:normal;font-weight:bold;font-stretch:normal;text-align:start;line-height:125%;writing-mode:lr-tb;text-anchor:start;font-family:Sans;-inkscape-font-specification:Sans Bold">BIOINFORMATICĂ</flowPara></flowRoot>    <path
       inkscape:connector-curvature="0"
       id="path3613"
       d="M 110.92829,328.51694 C 93.508103,325.38862 75.940203,314.23276 65.587694,299.72502 56.117113,286.45319 52.052548,273.63805 52.028764,256.97517 c -0.01828,-12.81079 1.680458,-19.95505 7.600695,-31.96561 7.624224,-15.4675 20.180904,-27.27899 36.638094,-34.46378 7.212717,-3.1489 7.747577,-3.59166 7.468117,-6.1823 -0.16556,-1.53476 -0.38466,-8.24531 -0.4869,-14.91231 -0.15641,-10.20019 0.1866,-13.3172 2.16376,-19.66237 4.7291,-15.17684 13.20975,-27.7687 25.10971,-37.2823 16.4048,-13.115048 38.92165,-18.24977 60.38757,-13.770708 10.80351,2.254248 24.45427,9.464488 32.51042,17.171788 l 6.78059,6.48698 4.46026,-3.74581 c 8.40161,-7.05584 11.81402,-9.42095 17.86803,-12.38417 19.20421,-9.39976 44.53644,-9.34566 63.9231,0.1365 13.46274,6.58472 26.34054,19.6928 32.9645,33.55398 5.52416,11.55977 6.98292,18.5859 6.93303,33.39323 l -0.0437,12.98849 4.68011,1.9204 c 25.72929,10.55753 40.81368,26.58204 47.49381,50.45387 2.58615,9.24176 2.87415,25.47649 0.62142,35.03079 -5.748,24.37857 -23.85756,43.95642 -48.48588,52.41705 -7.24721,2.48964 -9.48862,2.77692 -21.71828,2.78361 -11.96455,0.006 -14.58688,-0.31035 -21.38155,-2.58379 -12.08433,-4.0433 -20.63136,-9.34376 -29.83617,-18.50296 l -8.28623,-8.24517 -6.36098,6.42767 c -25.3633,25.6292 -63.11598,29.48979 -92.59781,9.46907 -3.34472,-2.27135 -6.58031,-4.12972 -7.19022,-4.12972 -0.6099,0 -3.4759,1.76817 -6.36888,3.92927 -11.85767,8.85787 -24.6666,13.26083 -40.11022,13.78755 -5.83363,0.19897 -12.9602,-0.0609 -15.83683,-0.57748 z"
       style="opacity:0.256;fill:url(#linearGradient6338);fill-opacity:1;fill-rule:nonzero;stroke:#000000;stroke-width:1.51499999;stroke-miterlimit:4;stroke-opacity:1;stroke-dasharray:none;stroke-dashoffset:0" />
    <flowRoot
       transform="translate(-11.243085,67.159363)"
       style="font-size:18px;font-style:normal;font-variant:normal;font-weight:normal;font-stretch:normal;text-align:start;line-height:125%;letter-spacing:0px;word-spacing:0px;writing-mode:lr-tb;text-anchor:start;fill:#000000;fill-opacity:1;stroke:none;font-family:Sans;-inkscape-font-specification:Sans"
       id="flowRoot4478"
       xml:space="preserve"><flowRegion
         id="flowRegion4480"><rect
           style="font-size:18px;font-style:normal;font-variant:normal;font-weight:normal;font-stretch:normal;text-align:start;line-height:125%;writing-mode:lr-tb;text-anchor:start;font-family:Sans;-inkscape-font-specification:Sans"
           y="93.727417"
           x="132.32999"
           height="23.233509"
           width="234.35539"
           id="rect4482" /></flowRegion><flowPara
         id="flowPara4484">Secvențierea Proteinelor</flowPara><flowPara
         id="flowPara4486" /></flowRoot>    <flowRoot
       transform="translate(-6.5077148,126.1622)"
       style="font-size:18px;font-style:normal;font-variant:normal;font-weight:normal;font-stretch:normal;text-align:start;line-height:125%;letter-spacing:0px;word-spacing:0px;writing-mode:lr-tb;text-anchor:start;fill:#000000;fill-opacity:1;stroke:none;font-family:Sans;-inkscape-font-specification:Sans"
       id="flowRoot4478-8"
       xml:space="preserve"><flowRegion
         id="flowRegion4480-5"><rect
           style="font-size:18px;font-style:normal;font-variant:normal;font-weight:normal;font-stretch:normal;text-align:start;line-height:125%;writing-mode:lr-tb;text-anchor:start;font-family:Sans;-inkscape-font-specification:Sans"
           y="93.727417"
           x="132.32999"
           height="49.497475"
           width="217.1828"
           id="rect4482-8" /></flowRegion><flowPara
         id="flowPara4486-0">Modelarea unei Rețele Regulatoare Genetice </flowPara></flowRoot>    <flowRoot
       xml:space="preserve"
       id="flowRoot4470-4"
       style="font-size:20px;font-style:normal;font-weight:normal;line-height:125%;letter-spacing:0px;word-spacing:0px;fill:#000000;fill-opacity:1;stroke:none;font-family:Bitstream Vera Sans"
       transform="translate(586.3708,43.01642)"><flowRegion
         id="flowRegion4472-1"><rect
           id="rect4474-8"
           width="166.67516"
           height="33.335033"
           x="85.862968"
           y="13.925366" /></flowRegion><flowPara
         id="flowPara4476-9"
         style="font-size:24px;font-style:normal;font-variant:normal;font-weight:bold;font-stretch:normal;text-align:start;line-height:125%;writing-mode:lr-tb;text-anchor:start;font-family:Sans;-inkscape-font-specification:Sans Bold">ECONOMIE</flowPara></flowRoot>    <path
       inkscape:connector-curvature="0"
       id="path3613-0"
       d="m 624.15969,328.51694 c -17.42019,-3.12832 -34.98809,-14.28418 -45.3406,-28.79192 -9.47058,-13.27183 -13.53514,-26.08697 -13.55893,-42.74985 -0.0183,-12.81079 1.68046,-19.95505 7.6007,-31.96561 7.62422,-15.4675 20.1809,-27.27899 36.63809,-34.46378 7.21272,-3.1489 7.74758,-3.59166 7.46812,-6.1823 -0.16556,-1.53476 -0.38466,-8.24531 -0.4869,-14.91231 -0.15641,-10.20019 0.1866,-13.3172 2.16376,-19.66237 4.7291,-15.17684 13.20975,-27.7687 25.10971,-37.2823 16.4048,-13.11505 38.92165,-18.24977 60.38757,-13.77071 10.80351,2.25425 24.45427,9.46449 32.51042,17.17179 l 6.78059,6.48698 4.46026,-3.74581 c 8.40161,-7.05584 11.81402,-9.42095 17.86803,-12.38417 19.20421,-9.39976 44.53644,-9.34566 63.9231,0.1365 13.46274,6.58472 26.34054,19.6928 32.9645,33.55398 5.52416,11.55977 6.98292,18.5859 6.93303,33.39323 l -0.0437,12.98849 4.68011,1.9204 c 25.72929,10.55753 40.81368,26.58204 47.49381,50.45387 2.58615,9.24176 2.87415,25.47649 0.62142,35.03079 -5.748,24.37857 -23.85756,43.95642 -48.48588,52.41705 -7.24721,2.48964 -9.48862,2.77692 -21.71828,2.78361 -11.96455,0.006 -14.58688,-0.31035 -21.38155,-2.58379 -12.08433,-4.0433 -20.63136,-9.34376 -29.83617,-18.50296 l -8.28623,-8.24517 -6.36098,6.42767 c -25.3633,25.6292 -63.11598,29.48979 -92.59781,9.46907 -3.34472,-2.27135 -6.58031,-4.12972 -7.19022,-4.12972 -0.6099,0 -3.4759,1.76817 -6.36888,3.92927 -11.85767,8.85787 -24.6666,13.26083 -40.11022,13.78755 -5.83363,0.19897 -12.9602,-0.0609 -15.83683,-0.57748 z"
       style="opacity:0.256;fill:url(#linearGradient6941);fill-opacity:1;fill-rule:nonzero;stroke:#000000;stroke-width:1.51499999;stroke-miterlimit:4;stroke-opacity:1;stroke-dasharray:none;stroke-dashoffset:0" />
    <flowRoot
       transform="translate(541.38427,48.976618)"
       style="font-size:18px;font-style:normal;font-variant:normal;font-weight:normal;font-stretch:normal;text-align:start;line-height:125%;letter-spacing:0px;word-spacing:0px;writing-mode:lr-tb;text-anchor:start;fill:#000000;fill-opacity:1;stroke:none;font-family:Sans;-inkscape-font-specification:Sans"
       id="flowRoot4478-4"
       xml:space="preserve"><flowRegion
         id="flowRegion4480-49"><rect
           style="font-size:18px;font-style:normal;font-variant:normal;font-weight:normal;font-stretch:normal;text-align:start;line-height:125%;writing-mode:lr-tb;text-anchor:start;font-family:Sans;-inkscape-font-specification:Sans"
           y="93.727417"
           x="132.32999"
           height="65.65992"
           width="188.89851"
           id="rect4482-9" /></flowRegion><flowPara
         id="flowPara7105"
         style="font-size:18px;font-style:normal;font-variant:normal;font-weight:bold;font-stretch:normal;text-align:start;line-height:125%;writing-mode:lr-tb;text-anchor:start;font-family:Sans;-inkscape-font-specification:Sans Bold">Predicția Valorilor Bursiere</flowPara><flowPara
         id="flowPara4486-4" /></flowRoot>    <flowRoot
       transform="translate(551.17041,138.28403)"
       style="font-size:18px;font-style:normal;font-variant:normal;font-weight:normal;font-stretch:normal;text-align:start;line-height:125%;letter-spacing:0px;word-spacing:0px;writing-mode:lr-tb;text-anchor:start;fill:#000000;fill-opacity:1;stroke:none;font-family:Sans;-inkscape-font-specification:Sans"
       id="flowRoot4478-8-8"
       xml:space="preserve"><flowRegion
         id="flowRegion4480-5-1"><rect
           style="font-size:18px;font-style:normal;font-variant:normal;font-weight:normal;font-stretch:normal;text-align:start;line-height:125%;writing-mode:lr-tb;text-anchor:start;font-family:Sans;-inkscape-font-specification:Sans"
           y="93.727417"
           x="132.32999"
           height="25.253815"
           width="132.33"
           id="rect4482-8-6" /></flowRegion><flowPara
         id="flowPara4486-0-5">Econometrie</flowPara><flowPara
         id="flowPara5471" /></flowRoot>    <image
       y="93.964531"
       x="419.30676"
       id="image6406"
       xlink:href="file:///home/alex/Desktop/AI-MAS/ARIA/education/workshops/w1/hmm-gesture-recognition/hmm-demos/slides/day1/ro-src/graphics/hmm-intro/econometrics.jpeg"
       height="91.081169"
       width="137.26772" />
    <path
       style="fill:none;stroke:#000000;stroke-width:0.9278785px;stroke-linecap:butt;stroke-linejoin:miter;stroke-opacity:1;marker-end:url(#Arrow2Lend)"
       d="M 660.42917,161.25944 568.6769,134.54516"
       id="path6409"
       inkscape:connector-curvature="0" />
    <flowRoot
       transform="translate(436.8833,158.66798)"
       style="font-size:12px;font-style:normal;font-variant:normal;font-weight:normal;font-stretch:normal;text-align:start;line-height:125%;letter-spacing:0px;word-spacing:0px;writing-mode:lr-tb;text-anchor:start;fill:#000000;fill-opacity:1;stroke:none;font-family:Sans;-inkscape-font-specification:Sans"
       id="flowRoot4478-8-8-4"
       xml:space="preserve"><flowRegion
         id="flowRegion4480-5-1-9"><rect
           style="font-size:12px;font-style:normal;font-variant:normal;font-weight:normal;font-stretch:normal;text-align:start;line-height:125%;writing-mode:lr-tb;text-anchor:start;font-family:Sans;-inkscape-font-specification:Sans"
           y="93.727417"
           x="132.32999"
           height="16.667519"
           width="343.45184"
           id="rect4482-8-6-2" /></flowRegion><flowPara
         id="flowPara4486-0-5-7">- estimarea în timp a indicatorilor economici ai unei țari - -</flowPara><flowPara
         id="flowPara5471-6" /></flowRoot>  </g>
</svg>
